<svg xmlns="http://www.w3.org/2000/svg" viewBox="0 0 574.26 83"><defs><style>.cls-1{fill:#f28303;}.cls-2{fill:#fff;}</style></defs><title>Asset 1</title><g id="Layer_2" data-name="Layer 2"><g id="Layer_1-2" data-name="Layer 1"><rect class="cls-1" width="574.26" height="83" rx="12" ry="12"/><path class="cls-2" d="M87.41,56.44c-.56,6.94-5.77,11.2-13.22,11.2H54.93a2.77,2.77,0,0,1-2-.79,3,3,0,0,1-.84-2V26.42a2.81,2.81,0,0,1,2.8-2.8H71.5c7.34,0,12.44,3.3,13.39,10.08.73,5.26-1.51,8.51-4.15,10.42C84.44,45.4,87.91,50.11,87.41,56.44Zm-5.6-.51c.56-5.49-2.47-8.17-8-8.17h-.17l-4.37.05h-.06a2.89,2.89,0,0,1-2.8-2.8,2.81,2.81,0,0,1,2.8-2.8l4.26-.05c4.14-.45,6.33-3.25,5.82-7.79-.44-3.64-3.08-5.15-7.84-5.15H57.73V62H74.19C78.73,62,81.42,60.08,81.81,55.93Z"/><path class="cls-2" d="M119.89,68.59a22.54,22.54,0,0,1-9-1.85,23.19,23.19,0,0,1-7.34-4.93,24,24,0,0,1-4.93-7.28,22.76,22.76,0,0,1-1.79-8.79,21.84,21.84,0,0,1,1.85-8.85,23,23,0,0,1,5-7.22A23,23,0,0,1,120.06,23a22.56,22.56,0,0,1,20.83,14,22.7,22.7,0,0,1,1.73,8.79,22.27,22.27,0,0,1-1.73,8.79,22,22,0,0,1-4.82,7.28A22.51,22.51,0,0,1,119.89,68.59Zm.17-40a18,18,0,0,0-6.84,1.34,17.55,17.55,0,0,0-5.6,3.75,16.08,16.08,0,0,0-3.75,5.49,15.76,15.76,0,0,0-1.4,6.61,16.95,16.95,0,0,0,5.1,12.1A17.34,17.34,0,0,0,119.89,63a17.16,17.16,0,0,0,12.21-5.1,17.54,17.54,0,0,0,3.64-5.49A18,18,0,0,0,137,45.74a17.17,17.17,0,0,0-4.87-12.1A16.67,16.67,0,0,0,120.06,28.55Z"/><path class="cls-2" d="M174.77,68.59a22.54,22.54,0,0,1-9-1.85,23.19,23.19,0,0,1-7.34-4.93,24,24,0,0,1-4.93-7.28,22.76,22.76,0,0,1-1.79-8.79,21.84,21.84,0,0,1,1.85-8.85,23,23,0,0,1,5-7.22A23,23,0,0,1,174.94,23a22.56,22.56,0,0,1,20.83,14,22.71,22.71,0,0,1,1.74,8.79,22.28,22.28,0,0,1-1.74,8.79A22,22,0,0,1,191,61.81,22.51,22.51,0,0,1,174.77,68.59Zm.17-40a18.08,18.08,0,0,0-6.84,1.34,17.55,17.55,0,0,0-5.6,3.75,16.08,16.08,0,0,0-3.75,5.49,15.76,15.76,0,0,0-1.4,6.61,16.95,16.95,0,0,0,5.1,12.1A17.34,17.34,0,0,0,174.77,63,17.16,17.16,0,0,0,187,57.89a17.37,17.37,0,0,0,3.64-5.49,18,18,0,0,0,1.28-6.66A17.17,17.17,0,0,0,187,33.64,16.67,16.67,0,0,0,174.94,28.55Z"/><path class="cls-2" d="M213.07,26.42V64.84a2.8,2.8,0,1,1-5.6,0V26.42a2.8,2.8,0,1,1,5.6,0Zm25.76,40.94a3.16,3.16,0,0,1-1.23.28,2.82,2.82,0,0,1-2.52-1.57,47.52,47.52,0,0,0-7.39-11c-3.31-3.53-5.83-6.16-9.63-8.35a2.61,2.61,0,0,1-.28-.17c-.12-.11-.23-.16-.34-.28a2.75,2.75,0,0,1-.73-1.51,2.88,2.88,0,0,1,.34-1.9,3.1,3.1,0,0,1,.67-.79L235.08,24.4a2.78,2.78,0,0,1,4,.06,2.81,2.81,0,0,1-.06,3.92l-15.12,15.4c7.06,5,12.6,12.32,16.24,19.82A2.81,2.81,0,0,1,238.83,67.36Z"/><path class="cls-2" d="M280.22,67.64a2.81,2.81,0,0,1-2.8-2.8V26.42a2.8,2.8,0,1,1,5.6,0V64.84A2.78,2.78,0,0,1,280.22,67.64Z"/><path class="cls-2" d="M329.44,67.41a3.1,3.1,0,0,1-3.25-.73L299.14,34.15V64.84a2.8,2.8,0,0,1-5.6,0V26.42a2.79,2.79,0,0,1,4.93-1.79l27.11,32.48V26.36a2.78,2.78,0,0,1,2.8-2.8,2.81,2.81,0,0,1,2.79,2.8V64.89A2.41,2.41,0,0,1,329.44,67.41Z"/><path class="cls-2" d="M403.69,26.42a2.77,2.77,0,0,1-2.8,2.8H388.63V64.84a2.81,2.81,0,0,1-2.8,2.8,2.78,2.78,0,0,1-2.8-2.8V29.22H370.71a2.8,2.8,0,1,1,0-5.6h30.18A2.77,2.77,0,0,1,403.69,26.42Z"/><path class="cls-2" d="M417,67.64a2.81,2.81,0,0,1-2.8-2.8V26.42a2.85,2.85,0,0,1,2.8-2.8,2.81,2.81,0,0,1,2.8,2.8V64.84A2.78,2.78,0,0,1,417,67.64Z"/><path class="cls-2" d="M471,67.64a2.9,2.9,0,0,1-2.86-2.8V36.56L454.32,59.68a2.69,2.69,0,0,1-2.24,1.12,2.86,2.86,0,0,1-2.3-1.12L436,36.56V64.84a2.81,2.81,0,0,1-2.8,2.8,2.85,2.85,0,0,1-2.8-2.8V26.31a2.82,2.82,0,0,1,2-2.69,2.86,2.86,0,0,1,3.14,1l16.63,28.05,16.57-28a3,3,0,0,1,3.2-1,2.85,2.85,0,0,1,1.9,2.69V64.84A2.81,2.81,0,0,1,471,67.64Z"/><path class="cls-2" d="M516.37,64.84a2.78,2.78,0,0,1-2.8,2.8H486.8a2.81,2.81,0,0,1-2.8-2.8V26.42a2.81,2.81,0,0,1,2.8-2.8H513a2.8,2.8,0,0,1,0,5.6H489.6v13.5h20.72a2.8,2.8,0,1,1,0,5.6H489.6V62h24A2.78,2.78,0,0,1,516.37,64.84Z"/></g></g></svg>